<svg width="501.2937866210937px" height="122px" xmlns="http://www.w3.org/2000/svg" viewBox="-0.646893310546858 14 501.2937866210937 122" style="background: rgba(0, 0, 0, 0);" preserveAspectRatio="xMidYMid"><defs><linearGradient id="editing-gradient-gradient" x1="0" x2="1" y1="0.5" y2="0.5" gradientUnits="objectBoundingBox"><stop offset="0" stop-color="#f0f"></stop><stop offset="1" stop-color="#00ff7f"></stop></linearGradient></defs><g><g transform="translate(74.45379424095154, 98.68000030517578)"><path d="M47.17 1.28L47.17 1.28L47.17 1.28Q39.42 1.28 39.42-4.74L39.42-4.74L39.42-4.74Q39.42-7.36 40.54-12.45L40.54-12.45L40.54-12.45Q41.66-17.54 42.05-19.58L42.05-19.58L42.05-19.58Q42.94-24.26 42.94-25.73L42.94-25.73L42.94-25.73Q42.94-28.99 40.51-28.99L40.51-28.99L40.51-28.99Q38.91-28.99 37.38-26.78L37.38-26.78L37.38-26.78Q35.84-24.58 35.14-20.16L35.14-20.16L31.17 0L18.69 1.28L22.14-16.13L22.14-16.13Q22.72-19.01 23.23-22.27L23.23-22.27L23.23-22.27Q23.74-25.54 23.74-26.05L23.74-26.05L23.74-26.05Q23.74-28.99 21.57-28.99L21.57-28.99L21.57-28.99Q20.10-28.99 18.50-26.82L18.50-26.82L18.50-26.82Q16.90-24.64 16-20.16L16-20.16L12.10 0L-0.51 1.28L6.21-32.64L16.64-33.92L15.55-27.46L15.55-27.46Q17.22-30.91 20.29-32.42L20.29-32.42L20.29-32.42Q23.36-33.92 28.16-33.92L28.16-33.92L28.16-33.92Q30.91-33.92 32.70-32.58L32.70-32.58L32.70-32.58Q34.50-31.23 35.07-29.06L35.07-29.06L35.07-29.06Q36.16-31.30 38.94-32.61L38.94-32.61L38.94-32.61Q41.73-33.92 45.15-33.92L45.15-33.92L45.15-33.92Q48.58-33.92 50.27-33.18L50.27-33.18L50.27-33.18Q51.97-32.45 52.99-31.23L52.99-31.23L52.99-31.23Q54.72-28.99 54.72-24.90L54.72-24.90L54.72-24.90Q54.72-20.86 52.99-12.48L52.99-12.48L52.99-12.48Q52.10-8.38 52.10-6.88L52.10-6.88L52.10-6.88Q52.10-5.38 52.96-4.48L52.96-4.48L52.96-4.48Q53.82-3.58 55.10-3.46L55.10-3.46L55.10-3.46Q54.46-1.28 52.26 0L52.26 0L52.26 0Q50.05 1.28 47.17 1.28ZM62.82-1.92L62.82-1.92L62.82-1.92Q61.31-3.58 60.64-6.21L60.64-6.21L60.64-6.21Q59.97-8.83 59.97-13.12L59.97-13.12L59.97-13.12Q59.97-17.41 61.44-21.31L61.44-21.31L61.44-21.31Q62.91-25.22 65.60-28.03L65.60-28.03L65.60-28.03Q71.10-33.92 80.19-33.92L80.19-33.92L80.19-33.92Q83.46-33.92 85.82-32.83L85.82-32.83L96.77-33.92L92.03-8.96L92.03-8.96Q91.84-8.19 91.84-6.78L91.84-6.78L91.84-6.78Q91.84-5.38 92.70-4.48L92.70-4.48L92.70-4.48Q93.57-3.58 94.85-3.46L94.85-3.46L94.85-3.46Q94.21-1.28 91.87 0L91.87 0L91.87 0Q89.54 1.28 86.91 1.28L86.91 1.28L86.91 1.28Q84.29 1.28 82.53 0.29L82.53 0.29L82.53 0.29Q80.77-0.70 80.26-2.37L80.26-2.37L80.26-2.37Q79.23-0.77 77.06 0.26L77.06 0.26L77.06 0.26Q74.88 1.28 71.97 1.28L71.97 1.28L71.97 1.28Q69.06 1.28 66.69 0.51L66.69 0.51L66.69 0.51Q64.32-0.26 62.82-1.92ZM76.32-27.90L76.32-27.90L76.32-27.90Q75.58-26.75 74.94-24.80L74.94-24.80L74.94-24.80Q74.30-22.85 73.25-17.63L73.25-17.63L73.25-17.63Q72.19-12.42 72.19-8.70L72.19-8.70L72.19-8.70Q72.19-4.99 72.77-3.90L72.77-3.90L72.77-3.90Q73.34-2.82 74.37-2.82L74.37-2.82L74.37-2.82Q76.42-2.82 77.92-4.77L77.92-4.77L77.92-4.77Q79.42-6.72 80-10.18L80-10.18L83.39-28.93L83.39-28.93Q82.05-30.08 80.48-30.08L80.48-30.08L80.48-30.08Q78.91-30.08 77.98-29.57L77.98-29.57L77.98-29.57Q77.06-29.06 76.32-27.90ZM120.77-2.69L120.77-2.69L120.77-2.69Q117.70 1.28 110.08 1.28L110.08 1.28L110.08 1.28Q106.11 1.28 103.23-1.12L103.23-1.12L103.23-1.12Q100.35-3.52 100.35-6.98L100.35-6.98L100.35-6.98Q100.35-8.90 100.54-9.86L100.54-9.86L104.83-32.64L117.82-33.92L113.15-9.22L113.15-9.22Q112.90-7.81 112.90-6.98L112.90-6.98L112.90-6.98Q112.90-3.26 115.14-3.26L115.14-3.26L115.14-3.26Q117.63-3.26 119.42-6.66L119.42-6.66L119.42-6.66Q120-7.74 120.26-9.15L120.26-9.15L124.80-32.64L137.41-33.92L132.67-8.96L132.67-8.96Q132.48-8 132.48-6.98L132.48-6.98L132.48-6.98Q132.48-5.95 133.06-4.83L133.06-4.83L133.06-4.83Q133.63-3.71 135.49-3.46L135.49-3.46L135.49-3.46Q135.10-1.92 133.76-0.90L133.76-0.90L133.76-0.90Q130.94 1.28 127.90 1.28L127.90 1.28L127.90 1.28Q124.86 1.28 123.07 0.19L123.07 0.19L123.07 0.19Q121.28-0.90 120.77-2.69ZM153.18 0.64L153.18 0.64L153.18 0.64Q150.14 0 148.58-0.29L148.58-0.29L148.58-0.29Q147.01-0.58 145.18-0.58L145.18-0.58L145.18-0.58Q143.36-0.58 141.57 0.06L141.57 0.06L141.57 0.06Q140.61-0.51 140-1.66L140-1.66L140-1.66Q139.39-2.82 139.39-4.61L139.39-4.61L139.39-4.61Q139.39-8.38 143.23-11.26L143.23-11.26L159.49-22.98L159.49-22.98Q154.94-24.26 150.82-24.26L150.82-24.26L150.82-24.26Q146.69-24.26 145.22-21.44L145.22-21.44L145.22-21.44Q143.04-24 143.04-28.03L143.04-28.03L143.04-28.03Q143.04-30.72 144.99-32.48L144.99-32.48L144.99-32.48Q146.94-34.24 151.04-34.24L151.04-34.24L151.04-34.24Q153.34-34.24 155.42-33.95L155.42-33.95L155.42-33.95Q157.50-33.66 159.36-33.41L159.36-33.41L162.82-32.90L162.82-32.90Q164.48-32.64 166.18-32.64L166.18-32.64L166.18-32.64Q167.87-32.64 169.15-33.34L169.15-33.34L169.15-33.34Q170.82-31.81 170.82-29.70L170.82-29.70L170.82-29.70Q170.82-26.37 166.72-22.91L166.72-22.91L150.53-10.82L150.53-10.82Q155.52-9.34 158.08-9.34L158.08-9.34L158.08-9.34Q163.46-9.34 165.76-11.90L165.76-11.90L165.76-11.90Q167.55-9.86 167.55-6.30L167.55-6.30L167.55-6.30Q167.55-2.75 165.25-0.74L165.25-0.74L165.25-0.74Q162.94 1.28 158.78 1.28L158.78 1.28L158.78 1.28Q156.22 1.28 153.18 0.64ZM187.07 1.28L187.07 1.28L187.07 1.28Q172.99 1.28 172.99-11.97L172.99-11.97L172.99-11.97Q172.99-21.38 178.18-27.46L178.18-27.46L178.18-27.46Q183.68-33.92 193.22-33.92L193.22-33.92L193.22-33.92Q200.13-33.92 203.65-30.72L203.65-30.72L203.65-30.72Q207.17-27.52 207.17-20.80L207.17-20.80L207.17-20.80Q207.17-10.56 201.66-4.61L201.66-4.61L201.66-4.61Q196.29 1.28 187.07 1.28ZM188.74-26.56L188.74-26.56L188.74-26.56Q187.97-24.83 187.36-22.24L187.36-22.24L187.36-22.24Q186.75-19.65 185.98-15.55L185.98-15.55L185.98-15.55Q185.22-11.46 185.22-6.40L185.22-6.40L185.22-6.40Q185.22-4.74 185.76-3.65L185.76-3.65L185.76-3.65Q186.30-2.56 187.78-2.56L187.78-2.56L187.78-2.56Q189.25-2.56 190.18-3.26L190.18-3.26L190.18-3.26Q191.10-3.97 191.81-5.63L191.81-5.63L191.81-5.63Q193.09-8.58 194.11-14.05L194.11-14.05L194.11-14.05Q195.14-19.52 195.23-21.89L195.23-21.89L195.23-21.89Q195.33-24.26 195.33-26.02L195.33-26.02L195.33-26.02Q195.33-27.78 194.82-28.93L194.82-28.93L194.82-28.93Q194.30-30.08 192.86-30.08L192.86-30.08L192.86-30.08Q191.42-30.08 190.46-29.18L190.46-29.18L190.46-29.18Q189.50-28.29 188.74-26.56ZM231.10-33.92L231.10-33.92L231.10-33.92Q233.41-33.92 235.20-33.41L235.20-33.41L235.20-33.41Q235.26-33.66 235.39-34.37L235.39-34.37L235.71-36.35L235.71-36.35Q235.97-37.63 236.35-39.74L236.35-39.74L237.38-44.80L250.11-46.08L243.01-8.96L243.01-8.96Q242.94-8.58 242.94-7.94L242.94-7.94L242.94-6.91L242.94-6.91Q242.94-5.50 243.65-4.45L243.65-4.45L243.65-4.45Q244.35-3.39 245.50-3.39L245.50-3.39L245.50-3.39Q244.22-0.38 240.32 0.90L240.32 0.90L240.32 0.90Q238.98 1.28 237.09 1.28L237.09 1.28L237.09 1.28Q235.20 1.28 233.47 0.29L233.47 0.29L233.47 0.29Q231.74-0.70 231.23-2.37L231.23-2.37L231.23-2.37Q230.21-0.70 228.16 0.29L228.16 0.29L228.16 0.29Q226.11 1.28 223.14 1.28L223.14 1.28L223.14 1.28Q220.16 1.28 217.70 0.51L217.70 0.51L217.70 0.51Q215.23-0.26 213.70-1.92L213.70-1.92L213.70-1.92Q210.88-5.18 210.88-12.61L210.88-12.61L210.88-12.61Q210.88-22.21 216.51-28.03L216.51-28.03L216.51-28.03Q222.14-33.92 231.10-33.92ZM230.66-30.08L230.66-30.08L230.66-30.08Q228.29-30.08 227.01-27.52L227.01-27.52L227.01-27.52Q225.73-24.96 224.42-18.62L224.42-18.62L224.42-18.62Q223.10-12.29 223.10-6.59L223.10-6.59L223.10-6.59Q223.10-2.69 225.41-2.69L225.41-2.69L225.41-2.69Q227.46-2.69 228.90-4.74L228.90-4.74L228.90-4.74Q230.34-6.78 230.91-10.18L230.91-10.18L234.37-28.93L234.37-28.93Q233.02-30.08 230.66-30.08ZM253.73-1.92L253.73-1.92L253.73-1.92Q252.22-3.58 251.55-6.21L251.55-6.21L251.55-6.21Q250.88-8.83 250.88-13.12L250.88-13.12L250.88-13.12Q250.88-17.41 252.35-21.31L252.35-21.31L252.35-21.31Q253.82-25.22 256.51-28.03L256.51-28.03L256.51-28.03Q262.02-33.92 271.10-33.92L271.10-33.92L271.10-33.92Q274.37-33.92 276.74-32.83L276.74-32.83L287.68-33.92L282.94-8.96L282.94-8.96Q282.75-8.19 282.75-6.78L282.75-6.78L282.75-6.78Q282.75-5.38 283.62-4.48L283.62-4.48L283.62-4.48Q284.48-3.58 285.76-3.46L285.76-3.46L285.76-3.46Q285.12-1.28 282.78 0L282.78 0L282.78 0Q280.45 1.28 277.82 1.28L277.82 1.28L277.82 1.28Q275.20 1.28 273.44 0.29L273.44 0.29L273.44 0.29Q271.68-0.70 271.17-2.37L271.17-2.37L271.17-2.37Q270.14-0.77 267.97 0.26L267.97 0.26L267.97 0.26Q265.79 1.28 262.88 1.28L262.88 1.28L262.88 1.28Q259.97 1.28 257.60 0.51L257.60 0.51L257.60 0.51Q255.23-0.26 253.73-1.92ZM267.23-27.90L267.23-27.90L267.23-27.90Q266.50-26.75 265.86-24.80L265.86-24.80L265.86-24.80Q265.22-22.85 264.16-17.63L264.16-17.63L264.16-17.63Q263.10-12.42 263.10-8.70L263.10-8.70L263.10-8.70Q263.10-4.99 263.68-3.90L263.68-3.90L263.68-3.90Q264.26-2.82 265.28-2.82L265.28-2.82L265.28-2.82Q267.33-2.82 268.83-4.77L268.83-4.77L268.83-4.77Q270.34-6.72 270.91-10.18L270.91-10.18L274.30-28.93L274.30-28.93Q272.96-30.08 271.39-30.08L271.39-30.08L271.39-30.08Q269.82-30.08 268.90-29.57L268.90-29.57L268.90-29.57Q267.97-29.06 267.23-27.90ZM292.16-6.40L292.16-6.40L292.16-6.40Q292.16-8.13 293.06-12.48L293.06-12.48L296.45-29.76L292.67-29.76L292.93-31.68L292.93-31.68Q300.61-33.98 308.03-39.62L308.03-39.62L311.10-39.62L309.57-32.64L314.56-32.64L313.98-29.76L309.06-29.76L305.79-12.48L305.79-12.48Q304.96-8.51 304.96-7.17L304.96-7.17L304.96-7.17Q304.96-4.10 307.65-3.46L307.65-3.46L307.65-3.46Q307.01-1.28 304.70 0L304.70 0L304.70 0Q302.40 1.28 299.14 1.28L299.14 1.28L299.14 1.28Q295.87 1.28 294.02-0.77L294.02-0.77L294.02-0.77Q292.16-2.82 292.16-6.40ZM316.77-1.92L316.77-1.92L316.77-1.92Q315.26-3.58 314.59-6.21L314.59-6.21L314.59-6.21Q313.92-8.83 313.92-13.12L313.92-13.12L313.92-13.12Q313.92-17.41 315.39-21.31L315.39-21.31L315.39-21.31Q316.86-25.22 319.55-28.03L319.55-28.03L319.55-28.03Q325.06-33.92 334.14-33.92L334.14-33.92L334.14-33.92Q337.41-33.92 339.78-32.83L339.78-32.83L350.72-33.92L345.98-8.96L345.98-8.96Q345.79-8.19 345.79-6.78L345.79-6.78L345.79-6.78Q345.79-5.38 346.66-4.48L346.66-4.48L346.66-4.48Q347.52-3.58 348.80-3.46L348.80-3.46L348.80-3.46Q348.16-1.28 345.82 0L345.82 0L345.82 0Q343.49 1.28 340.86 1.28L340.86 1.28L340.86 1.28Q338.24 1.28 336.48 0.29L336.48 0.29L336.48 0.29Q334.72-0.70 334.21-2.37L334.21-2.37L334.21-2.37Q333.18-0.77 331.01 0.26L331.01 0.26L331.01 0.26Q328.83 1.28 325.92 1.28L325.92 1.28L325.92 1.28Q323.01 1.28 320.64 0.51L320.64 0.51L320.64 0.51Q318.27-0.26 316.77-1.92ZM330.27-27.90L330.27-27.90L330.27-27.90Q329.54-26.75 328.90-24.80L328.90-24.80L328.90-24.80Q328.26-22.85 327.20-17.63L327.20-17.63L327.20-17.63Q326.14-12.42 326.14-8.70L326.14-8.70L326.14-8.70Q326.14-4.99 326.72-3.90L326.72-3.90L326.72-3.90Q327.30-2.82 328.32-2.82L328.32-2.82L328.32-2.82Q330.37-2.82 331.87-4.77L331.87-4.77L331.87-4.77Q333.38-6.72 333.95-10.18L333.95-10.18L337.34-28.93L337.34-28.93Q336-30.08 334.43-30.08L334.43-30.08L334.43-30.08Q332.86-30.08 331.94-29.57L331.94-29.57L331.94-29.57Q331.01-29.06 330.27-27.90Z" fill="url(#editing-gradient-gradient)"></path></g></g><style>text {
  font-size: 64px;
  font-family: Arial Black;
  dominant-baseline: central;
  text-anchor: middle;
}</style></svg>